<svg xmlns="http://www.w3.org/2000/svg" viewBox="0 0 64 64" role="img" aria-label="Mirror">
  <defs>
    <linearGradient id="mirror-bg" x1="0" y1="0" x2="1" y2="1">
      <stop offset="0%" stop-color="#4a90d9"/>
      <stop offset="100%" stop-color="#1e3a5f"/>
    </linearGradient>
  </defs>
  <rect x="0" y="0" width="64" height="64" rx="14" fill="url(#mirror-bg)"/>
  <svg x="8" y="14" width="48" height="36" viewBox="388 261 60 44" preserveAspectRatio="xMidYMid meet">
    <g fill="#ffffff">
      <path d="M395.58,281.35h6.67c1.98,0,3.56-.59,4.74-1.76,1.18-1.18,1.76-2.76,1.76-4.74s-.6-3.63-1.79-4.82c-1.19-1.19-2.76-1.79-4.71-1.79h-6.67v13.12ZM389.68,303.18v-40.23h12.57c2.5,0,4.69.49,6.58,1.46,1.89.97,3.36,2.34,4.41,4.11,1.05,1.76,1.57,3.84,1.57,6.23,0,2.68-.68,5.02-2.04,7-1.36,1.98-3.18,3.38-5.46,4.19l8.05,17.25h-6.5l-7.49-16.53h-5.79v16.53h-5.9Z"/>
      <path d="M441.43,281.59h-6.67c-1.98,0-3.56-.59-4.74-1.76-1.18-1.18-1.76-2.76-1.76-4.74s.6-3.63,1.79-4.82,2.76-1.79,4.71-1.79h6.67v13.12ZM447.32,303.42v-40.23h-12.56c-2.5,0-4.69.49-6.59,1.46-1.89.97-3.36,2.34-4.41,4.11-1.05,1.76-1.57,3.84-1.57,6.23,0,2.68.68,5.02,2.04,7,1.36,1.98,3.18,3.38,5.46,4.19l-8.05,17.25h6.5l7.49-16.53h5.79v16.53h5.9Z"/>
    </g>
  </svg>
</svg>
